<?xml version="1.0" encoding="UTF-8" standalone="no" ?>
<!DOCTYPE svg PUBLIC "-//W3C//DTD SVG 1.1//EN" "http://www.w3.org/Graphics/SVG/1.1/DTD/svg11.dtd">
<svg xmlns="http://www.w3.org/2000/svg" xmlns:xlink="http://www.w3.org/1999/xlink" version="1.1" width="1280" height="1024" viewBox="0 0 1280 1024" xml:space="preserve">
<desc>Created with Fabric.js 5.3.0</desc>
<defs>
</defs>
<g transform="matrix(1 0 0 1 640 512)" id="background-logo"  >
<rect style="stroke: none; stroke-width: 0; stroke-dasharray: none; stroke-linecap: butt; stroke-dashoffset: 0; stroke-linejoin: miter; stroke-miterlimit: 4; fill: rgb(173,209,240); fill-rule: nonzero; opacity: 1;"  paint-order="stroke"  x="-640" y="-512" rx="0" ry="0" width="1280" height="1024" />
</g>
<g transform="matrix(1.9211538461538462 0 0 1.9211538461538462 640 373.7278446274478)" id="logo-logo"  >
<g style=""  paint-order="stroke"   >
		<g transform="matrix(0.30123838643593465 0 0 -0.30123838643593465 0 0)"  >
<path style="stroke: none; stroke-width: 1; stroke-dasharray: none; stroke-linecap: butt; stroke-dashoffset: 0; stroke-linejoin: miter; stroke-miterlimit: 4; fill: rgb(16,56,91); fill-rule: nonzero; opacity: 1;"  paint-order="stroke"  transform=" translate(-999.9970000000001, -750)" d="M 1491.33 1180.57 L 508.668 1180.57 C 497.543 1180.57 491.754 1174.79 491.754 1164.8999999999999 L 491.754 336.352 C 491.754 325.21099999999996 497.543 319.42999999999995 507.42600000000004 319.42999999999995 L 1000 319.42999999999995 L 1492.58 319.42999999999995 C 1502.46 319.42999999999995 1508.24 325.21099999999996 1508.24 336.352 L 1508.24 1164.9 C 1508.24 1174.7900000000002 1502.46 1180.5700000000002 1491.33 1180.5700000000002" stroke-linecap="round" />
</g>
		<g transform="matrix(0.30123838643593465 0 0 -0.30123838643593465 -6.643812612844499 -101.62276966416249)"  >
<path style="stroke: none; stroke-width: 1; stroke-dasharray: none; stroke-linecap: butt; stroke-dashoffset: 0; stroke-linejoin: miter; stroke-miterlimit: 4; fill: rgb(233,243,251); fill-rule: nonzero; opacity: 1;"  paint-order="stroke"  transform=" translate(-977.9419999999999, -1087.35)" d="M 1236.09 1067.52 L 1141.62 1082.91 L 1306.84 1103.72 L 1184.08 1119.53 L 1400.4699999999998 1149.49 L 1000 1149.49 L 555.414 1149.49 L 719.652 1025.21 L 1000 1025.21 L 1229.43 1025.21 L 1095.43 1051.29 L 1236.0900000000001 1067.52" stroke-linecap="round" />
</g>
		<g transform="matrix(0.30123838643593465 0 0 -0.30123838643593465 112.88697664816146 -99.4704213930778)"  >
<path style="stroke: none; stroke-width: 1; stroke-dasharray: none; stroke-linecap: butt; stroke-dashoffset: 0; stroke-linejoin: miter; stroke-miterlimit: 4; fill: rgb(233,243,251); fill-rule: nonzero; opacity: 1;"  paint-order="stroke"  transform=" translate(-1374.74, -1080.205)" d="M 1443.05 1149.49 L 1292.27 1010.9200000000001 L 1457.21 1149.49 z" stroke-linecap="round" />
</g>
		<g transform="matrix(0.30123838643593465 0 0 -0.30123838643593465 -115.49509859792374 -73.46360777690421)"  >
<path style="stroke: none; stroke-width: 1; stroke-dasharray: none; stroke-linecap: butt; stroke-dashoffset: 0; stroke-linejoin: miter; stroke-miterlimit: 4; fill: rgb(35,123,199); fill-rule: nonzero; opacity: 1;"  paint-order="stroke"  transform=" translate(-616.596, -993.8720000000001)" d="M 528.93 1128.42 L 528.93 1110.52 L 689.711 986.758 L 689.711 880.508 L 689.691 880.508 L 675.133 883.938 L 675.133 980.73 L 528.93 1093.05 L 528.93 900.586 L 704.262 859.324 L 704.262 993.477 L 528.93 1128.42" stroke-linecap="round" />
</g>
		<g transform="matrix(0.30123838643593465 0 0 -0.30123838643593465 -115.49509859792374 -0.0010543343525171167)"  >
<path style="stroke: none; stroke-width: 1; stroke-dasharray: none; stroke-linecap: butt; stroke-dashoffset: 0; stroke-linejoin: miter; stroke-miterlimit: 4; fill: rgb(35,123,199); fill-rule: nonzero; opacity: 1;"  paint-order="stroke"  transform=" translate(-616.596, -750.0035)" d="M 528.93 864.023 L 528.93 847.93 L 694.496 809.668 L 694.496 695.039 L 678.754 691.406 L 678.754 798.594 L 528.93 833.223 L 528.93 750 L 528.93 635.984 L 704.262 676.504 L 704.262 750 L 704.262 823.496 L 528.93 864.023" stroke-linecap="round" />
</g>
		<g transform="matrix(0.30123838643593465 0 0 -0.30123838643593465 -119.80777795733383 77.35997568625982)"  >
<path style="stroke: none; stroke-width: 1; stroke-dasharray: none; stroke-linecap: butt; stroke-dashoffset: 0; stroke-linejoin: miter; stroke-miterlimit: 4; fill: rgb(35,123,199); fill-rule: nonzero; opacity: 1;"  paint-order="stroke"  transform=" translate(-602.2795, -493.1935000000001)" d="M 675.629 606.477 L 528.93 571.953 L 528.93 379.91 L 675.6289999999999 492.809 L 675.6289999999999 606.4770000000001" stroke-linecap="round" />
</g>
		<g transform="matrix(0.30123838643593465 0 0 -0.30123838643593465 -115.49509859792374 52.32661391585407)"  >
<path style="stroke: none; stroke-width: 1; stroke-dasharray: none; stroke-linecap: butt; stroke-dashoffset: 0; stroke-linejoin: miter; stroke-miterlimit: 4; fill: rgb(35,123,199); fill-rule: nonzero; opacity: 1;"  paint-order="stroke"  transform=" translate(-616.596, -576.2950000000001)" d="M 528.93 607.742 L 528.93 586.105 L 691.078 624.258 L 691.078 504.707 L 689.6129999999999 503.586 L 704.262 514.855 L 704.262 649.004 L 528.93 607.742" stroke-linecap="round" />
</g>
		<g transform="matrix(0.30123838643593465 0 0 -0.30123838643593465 -0.0004518575796623736 0)"  >
<path style="stroke: none; stroke-width: 1; stroke-dasharray: none; stroke-linecap: butt; stroke-dashoffset: 0; stroke-linejoin: miter; stroke-miterlimit: 4; fill: rgb(129,185,233); fill-rule: nonzero; opacity: 1;"  paint-order="stroke"  transform=" translate(-999.9955000000001, -750)" d="M 1106.52 774.973 C 1068.54 774.973 1037.73 805.781 1037.73 843.77 C 1037.73 881.758 1068.54 912.566 1106.52 912.566 C 1144.53 912.566 1175.33 881.758 1175.33 843.77 C 1175.33 805.781 1144.53 774.973 1106.52 774.973 z M 919.8199999999999 773.3009999999999 L 799.137 773.3009999999999 L 799.137 933.105 L 919.82 933.105 Z M 736.441 993.477 L 736.441 506.523 L 762.0160000000001 506.523 C 768.6290000000001 539.6410000000001 819.1170000000001 566.895 819.1170000000001 566.895 C 819.1170000000001 566.895 816.3130000000001 611.836 815.7850000000001 628.4839999999999 C 815.1600000000001 648.2539999999999 823.4800000000001 658.867 842.4180000000001 662.3359999999999 C 871.4100000000001 667.637 961.1560000000002 673.9839999999999 1000.0000000000001 673.9839999999999 C 1038.8500000000001 673.9839999999999 1128.5900000000001 667.637 1157.5800000000002 662.3359999999999 C 1176.5200000000002 658.8669999999998 1184.8400000000001 648.2539999999999 1184.2200000000003 628.4839999999999 C 1183.6900000000003 611.8359999999999 1180.8800000000003 566.895 1180.8800000000003 566.895 C 1180.8800000000003 566.895 1231.3700000000003 539.641 1237.9900000000002 506.52299999999997 L 1263.5500000000002 506.52299999999997 L 1263.5500000000002 993.477 L 736.441 993.477" stroke-linecap="round" />
</g>
		<g transform="matrix(0.30123838643593465 0 0 -0.30123838643593465 -44.584636765257244 -38.60912151272086)"  >
<path style="stroke: none; stroke-width: 1; stroke-dasharray: none; stroke-linecap: butt; stroke-dashoffset: 0; stroke-linejoin: miter; stroke-miterlimit: 4; fill: rgb(255,255,255); fill-rule: nonzero; opacity: 1;"  paint-order="stroke"  transform=" translate(-851.9925000000001, -878.168)" d="M 819.672 843.77 L 819.672 912.566 L 884.313 912.566 L 832.711 897.313 L 819.672 843.77" stroke-linecap="round" />
</g>
		<g transform="matrix(0.30123838643593465 0 0 -0.30123838643593465 -53.47986246830061 66.42270376476719)"  >
<path style="stroke: none; stroke-width: 1; stroke-dasharray: none; stroke-linecap: butt; stroke-dashoffset: 0; stroke-linejoin: miter; stroke-miterlimit: 4; fill: rgb(164,204,239); fill-rule: nonzero; opacity: 1;"  paint-order="stroke"  transform=" translate(-822.4636414495141, -529.501196541917)" d="M 855.484 542.441 C 860.082 546.543 856.625 550.879 847.75 552.109 L 847.75 552.109 C 838.891 553.34 827.973 550.996 823.363 546.8870000000001 L 789.449 516.57 C 784.8399999999999 512.441 788.305 508.11300000000006 797.1719999999999 506.89500000000004 L 797.1719999999999 506.89500000000004 C 806.0389999999999 505.66400000000004 816.9569999999999 507.98800000000006 821.5659999999999 512.1170000000001 L 855.4839999999999 542.441" stroke-linecap="round" />
</g>
		<g transform="matrix(0.30123838643593465 0 0 -0.30123838643593465 -60.976372943975434 89.19066145595156)"  >
<path style="stroke: none; stroke-width: 1; stroke-dasharray: none; stroke-linecap: butt; stroke-dashoffset: 0; stroke-linejoin: miter; stroke-miterlimit: 4; fill: rgb(164,204,239); fill-rule: nonzero; opacity: 1;"  paint-order="stroke"  transform=" translate(-797.578, -453.91999999999996)" d="M 809.125 437.582 C 809.125 431.199 803.961 426.039 797.582 426.039 L 797.582 426.039 C 791.195 426.039 786.031 431.199 786.031 437.582 L 786.031 470.25 C 786.031 476.621 791.1949999999999 481.801 797.582 481.801 L 797.582 481.801 C 803.961 481.801 809.125 476.621 809.125 470.25 L 809.125 437.582" stroke-linecap="round" />
</g>
		<g transform="matrix(0.30123838643593465 0 0 -0.30123838643593465 53.48173435638529 66.42270376476719)"  >
<path style="stroke: none; stroke-width: 1; stroke-dasharray: none; stroke-linecap: butt; stroke-dashoffset: 0; stroke-linejoin: miter; stroke-miterlimit: 4; fill: rgb(164,204,239); fill-rule: nonzero; opacity: 1;"  paint-order="stroke"  transform=" translate(-1177.5365725264232, -529.501196541917)" d="M 1144.51 542.441 C 1139.92 546.543 1143.3799999999999 550.879 1152.25 552.109 L 1152.25 552.109 C 1161.11 553.34 1172.03 550.996 1176.64 546.8870000000001 L 1210.5500000000002 516.57 C 1215.16 512.441 1211.7000000000003 508.11300000000006 1202.8300000000002 506.89500000000004 L 1202.8300000000002 506.89500000000004 C 1193.9600000000003 505.66400000000004 1183.0500000000002 507.98800000000006 1178.44 512.1170000000001 L 1144.51 542.441" stroke-linecap="round" />
</g>
		<g transform="matrix(0.30123838643593465 0 0 -0.30123838643593465 60.97757789752126 89.19066145595156)"  >
<path style="stroke: none; stroke-width: 1; stroke-dasharray: none; stroke-linecap: butt; stroke-dashoffset: 0; stroke-linejoin: miter; stroke-miterlimit: 4; fill: rgb(164,204,239); fill-rule: nonzero; opacity: 1;"  paint-order="stroke"  transform=" translate(-1202.42, -453.91999999999996)" d="M 1190.88 437.582 C 1190.88 431.199 1196.0400000000002 426.039 1202.42 426.039 L 1202.42 426.039 C 1208.8100000000002 426.039 1213.96 431.199 1213.96 437.582 L 1213.96 470.25 C 1213.96 476.621 1208.81 481.801 1202.42 481.801 L 1202.42 481.801 C 1196.04 481.801 1190.88 476.621 1190.88 470.25 L 1190.88 437.582" stroke-linecap="round" />
</g>
		<g transform="matrix(0.30123838643593465 0 0 -0.30123838643593465 0.0021086687050342334 106.80542548359955)"  >
<path style="stroke: none; stroke-width: 1; stroke-dasharray: none; stroke-linecap: butt; stroke-dashoffset: 0; stroke-linejoin: miter; stroke-miterlimit: 4; fill: rgb(164,204,239); fill-rule: nonzero; opacity: 1;"  paint-order="stroke"  transform=" translate(-1000.0039999999999, -395.44550000000004)" d="M 1206.97 405.43 L 793.031 405.43 C 790.5899999999999 405.43 788.598 403.44100000000003 788.598 401 C 788.598 398.539 790.5899999999999 396.559 793.031 396.559 L 815.0429999999999 396.559 C 815.5629999999999 392.32000000000005 817.9529999999999 385.461 828.1289999999999 385.461 C 838.305 385.461 840.7069999999999 392.32 841.2269999999999 396.559 L 1000 396.559 L 1158.77 396.559 C 1159.3 392.32000000000005 1161.7 385.461 1171.8799999999999 385.461 C 1182.05 385.461 1184.4299999999998 392.32 1184.9599999999998 396.559 L 1206.9699999999998 396.559 C 1209.4099999999999 396.559 1211.4099999999999 398.53900000000004 1211.4099999999999 401 C 1211.4099999999999 403.441 1209.4099999999999 405.43 1206.9699999999998 405.43" stroke-linecap="round" />
</g>
		<g transform="matrix(0.30123838643593465 0 0 -0.30123838643593465 -12.92402506239199 92.41314349462624)"  >
<path style="stroke: none; stroke-width: 1; stroke-dasharray: none; stroke-linecap: butt; stroke-dashoffset: 0; stroke-linejoin: miter; stroke-miterlimit: 4; fill: rgb(164,204,239); fill-rule: nonzero; opacity: 1;"  paint-order="stroke"  transform=" translate(-957.0940180284757, -443.2225517869714)" d="M 1071.58 463.422 L 853.656 463.422 C 843.4609999999999 463.422 839.098 459.12100000000004 839.098 449.762 L 839.098 430.711 C 839.098 425.41 841.684 422.07800000000003 848.3439999999999 423.262 L 848.3439999999999 423.25 C 887.6909999999999 430.352 966.3439999999999 429.781 986.1879999999999 433.078 C 993.8909999999998 434.359 993.6949999999998 439.92199999999997 986.6169999999998 441.109 C 946.2459999999999 447.87899999999996 882.3789999999999 442.32 882.3789999999999 442.32 C 911.5079999999999 457.031 1066.9299999999998 457.031 1071.58 457.031 C 1076.23 457.031 1076.29 463.422 1071.58 463.422" stroke-linecap="round" />
</g>
		<g transform="matrix(0.30123838643593465 0 0 -0.30123838643593465 -2.8305563261625366 74.57033753208174)"  >
<path style="stroke: none; stroke-width: 1; stroke-dasharray: none; stroke-linecap: butt; stroke-dashoffset: 0; stroke-linejoin: miter; stroke-miterlimit: 4; fill: rgb(164,204,239); fill-rule: nonzero; opacity: 1;"  paint-order="stroke"  transform=" translate(-990.6006001598205, -502.45406664684526)" d="M 1127.89 502.285 C 1121.3700000000001 503.02700000000004 1048.8300000000002 511.973 1048.8300000000002 511.973 L 1103.7500000000002 522.793 L 893.297 522.793 C 887.164 522.793 882.2810000000001 520.605 879.2420000000001 517.5 L 850.6210000000001 488.441 C 847.0350000000001 484.789 848.0310000000001 481.969 852.0740000000001 482.121 C 897.0550000000001 483.96099999999996 1117.81 492.988 1127.89 493.789 C 1134.43 494.32 1134.41 501.563 1127.89 502.28499999999997" stroke-linecap="round" />
</g>
		<g transform="matrix(0.30123838643593465 0 0 -0.30123838643593465 -5.764303701170718 57.094075929082834)"  >
<path style="stroke: none; stroke-width: 1; stroke-dasharray: none; stroke-linecap: butt; stroke-dashoffset: 0; stroke-linejoin: miter; stroke-miterlimit: 4; fill: rgb(164,204,239); fill-rule: nonzero; opacity: 1;"  paint-order="stroke"  transform=" translate(-980.8616442129426, -560.4687898359023)" d="M 878.754 545.801 C 876.684 550.0590000000001 883.48 552.4490000000001 881.539 557.7270000000001 C 879.5939999999999 562.9960000000001 850.18 564.1020000000001 849.633 567.988 C 849.0780000000001 571.875 864.0590000000001 574.648 876.547 574.1020000000001 C 889.027 573.5350000000001 919.273 571.3160000000001 943.129 571.3160000000001 C 966.977 571.3160000000001 1069 577.5120000000002 1071.5 577.5120000000002 C 1074 577.5120000000002 1074.22 576.1520000000002 1073.38 575.1170000000002 C 1073.38 575.1170000000002 1103.2 576.1910000000001 1108.2 576.3280000000002 C 1113.2 576.4650000000001 1113.6100000000001 570.0900000000001 1108.2 569.3950000000002 C 1102.79 568.6990000000002 1043.2 566.8950000000002 1028.03 566.0630000000002 C 1012.8299999999999 565.2340000000003 944.586 562.7340000000003 938.5509999999999 554.8240000000002 C 938.5509999999999 554.8240000000002 964.242 559.5120000000002 977.2499999999999 547.9690000000002 C 951.762 553.8870000000002 882.7889999999999 537.5590000000002 878.7539999999999 545.8010000000002" stroke-linecap="round" />
</g>
		<g transform="matrix(0.30123838643593465 0 0 -0.30123838643593465 0.0018074303186494944 40.4196106160494)"  >
<path style="stroke: none; stroke-width: 1; stroke-dasharray: none; stroke-linecap: butt; stroke-dashoffset: 0; stroke-linejoin: miter; stroke-miterlimit: 4; fill: rgb(164,204,239); fill-rule: nonzero; opacity: 1;"  paint-order="stroke"  transform=" translate(-1000.0029999999999, -615.8218459663487)" d="M 1000 643.469 C 1026.78 643.469 1115.41 639.297 1137.81 634.941 C 1145.1 633.5160000000001 1147.6 628.2810000000001 1147.6 620.996 C 1147.6 615.8009999999999 1147.6 613.3009999999999 1147.6 613.3009999999999 C 1147.6 613.3009999999999 1118.05 611.1329999999999 1118.05 607.2579999999999 C 1118.05 603.3789999999999 1136.6399999999999 599.91 1136.6399999999999 599.91 C 1127.4799999999998 594.9219999999999 1105.7599999999998 600.723 1090.59 596.7189999999999 C 1066.72 590.41 1018.8699999999999 593.535 988.0699999999999 593.535 C 961.227 593.535 905.2579999999999 584.172 852.406 590.1949999999999 C 852.406 590.1949999999999 852.406 615.8009999999999 852.406 620.996 C 852.406 628.281 854.8979999999999 633.516 862.184 634.941 C 884.586 639.297 973.227 643.469 1000 643.469" stroke-linecap="round" />
</g>
</g>
</g>
<g transform="matrix(1.9211538461538462 0 0 1.9211538461538462 640.0624375000001 723.4541524692941)" id="text-logo"  >
<g style=""  paint-order="stroke"   >
		<g transform="matrix(1 0 0 1 0 0)" id="text-logo-path-0"  >
<path style="stroke: none; stroke-width: 0; stroke-dasharray: none; stroke-linecap: butt; stroke-dashoffset: 0; stroke-linejoin: miter; stroke-miterlimit: 4; fill: rgb(16,56,91); fill-rule: nonzero; opacity: 1;"  paint-order="stroke"  transform=" translate(-227.69500000000002, 22)" d="M 4.03 -44.46 L 4.03 0 L 14.88 0 L 14.88 -44.46 Z M 41.92 -44.46 L 22.95 -44.46 L 22.95 0 L 41.92 0 C 54.6 0 64.74 -9.36 64.74 -22.04 C 64.74 -34.65 54.6 -44.46 41.92 -44.46 Z M 33.8 -10.21 L 33.8 -34.19 L 41.92 -34.19 C 48.62 -34.19 53.95 -28.8 53.95 -22.16 C 53.95 -15.47 48.49 -10.21 41.92 -10.21 Z M 80.41 -10.21 L 80.41 -17.62 L 95.88 -17.62 L 95.88 -27.82 L 80.41 -27.82 L 80.41 -34.19 L 97.44 -34.19 L 97.44 -44.46 L 69.55 -44.46 L 69.55 0 L 97.76 0 L 97.76 -10.21 Z M 103.81 -44.46 L 103.81 0 L 114.66 0 L 114.66 -44.46 Z M 148 -44.46 L 148 -21.84 L 133.57 -44.46 L 122.72 -44.46 L 122.72 0 L 133.57 0 L 133.57 -25.41 L 149.82 0 L 158.86 0 L 158.86 -44.46 Z M 196.1 -34.19 L 196.1 -44.46 L 162.89 -44.46 L 162.89 -34.19 L 174.13 -34.19 L 174.13 0 L 184.92 0 L 184.92 -34.19 Z M 209.82 -10.21 L 209.82 -17.62 L 225.29 -17.62 L 225.29 -27.82 L 209.82 -27.82 L 209.82 -34.19 L 226.85 -34.19 L 226.85 -44.46 L 198.97 -44.46 L 198.97 0 L 227.18 0 L 227.18 -10.21 Z M 248.69 -14.3 L 256.69 0 L 269.03 0 L 259.74 -16.77 C 264.03 -19.57 266.5 -24.31 266.5 -29.38 C 266.5 -37.77 259.81 -44.46 251.48 -44.46 L 232.63 -44.46 L 232.63 0 L 243.49 0 L 243.49 -14.3 Z M 243.49 -24.57 L 243.49 -34.19 L 251.48 -34.19 C 254.21 -34.19 256.3 -32.11 256.3 -29.38 C 256.3 -26.78 254.08 -24.57 251.48 -24.57 Z M 272.15 -44.46 L 272.15 0 L 283.01 0 L 283.01 -44.46 Z M 310.76 0.91 C 323.5 0.91 333.64 -9.43 333.64 -22.04 C 333.64 -34.84 323.44 -44.91 310.76 -44.91 C 298.03 -44.91 287.82 -34.65 287.82 -22.04 C 287.82 -9.49 298.09 0.91 310.76 0.91 Z M 298.61 -22.04 C 298.61 -28.67 304.2 -34.13 310.76 -34.13 C 317.46 -34.13 322.79 -28.67 322.79 -22.04 C 322.79 -15.41 317.46 -9.95 310.76 -9.95 C 304.13 -9.95 298.61 -15.47 298.61 -22.04 Z M 354.44 -14.3 L 362.44 0 L 374.79 0 L 365.5 -16.77 C 369.79 -19.57 372.25 -24.31 372.25 -29.38 C 372.25 -37.77 365.56 -44.46 357.24 -44.46 L 338.39 -44.46 L 338.39 0 L 349.25 0 L 349.25 -14.3 Z M 349.25 -24.57 L 349.25 -34.19 L 357.24 -34.19 C 359.97 -34.19 362.05 -32.11 362.05 -29.38 C 362.05 -26.78 359.84 -24.57 357.24 -24.57 Z M 424.77 0 L 436.34 0 L 420.03 -44.46 L 408.46 -44.46 L 392.21 0 L 403.78 0 L 406.64 -7.74 L 421.91 -7.74 Z M 410.34 -18 L 414.31 -28.73 L 418.14 -18 Z M 440.5 -44.46 L 440.5 0 L 451.36 0 L 451.36 -44.46 Z" stroke-linecap="round" />
</g>
</g>
</g>
<g transform="matrix(1.9211538461538462 0 0 1.9211538461538462 641.5417259615385 828.0371570846787)" id="tagline-89913dec-6ff6-42d0-93e2-6215c84bf321-logo"  >
<g style=""  paint-order="stroke"   >
		<g transform="matrix(1 0 0 1 0 0)" id="tagline-89913dec-6ff6-42d0-93e2-6215c84bf321-logo-path-0"  >
<path style="stroke: none; stroke-width: 0; stroke-dasharray: none; stroke-linecap: butt; stroke-dashoffset: 0; stroke-linejoin: miter; stroke-miterlimit: 4; fill: rgb(24,64,98); fill-rule: nonzero; opacity: 1;"  paint-order="stroke"  transform=" translate(-204.24, 10.245)" d="M 10.62 -20.52 L 1.86 -20.52 L 1.86 0 L 10.62 0 C 16.47 0 21.15 -4.32 21.15 -10.17 C 21.15 -15.99 16.47 -20.52 10.62 -20.52 Z M 6.87 -4.71 L 6.87 -15.78 L 10.62 -15.78 C 13.71 -15.78 16.17 -13.29 16.17 -10.23 C 16.17 -7.14 13.65 -4.71 10.62 -4.71 Z M 28.98 -4.71 L 28.98 -8.13 L 36.12 -8.13 L 36.12 -12.84 L 28.98 -12.84 L 28.98 -15.78 L 36.84 -15.78 L 36.84 -20.52 L 23.97 -20.52 L 23.97 0 L 36.99 0 L 36.99 -4.71 Z M 46.26 0.42 C 50.07 0.42 53.76 -1.71 53.76 -5.82 C 53.76 -9.87 50.58 -11.55 47.13 -12.6 C 46.2 -12.9 45.51 -13.17 45.06 -13.38 C 44.43 -13.68 43.98 -14.01 43.98 -14.76 C 43.98 -15.63 45.09 -15.96 45.78 -15.96 C 47.4 -15.96 48.21 -15.24 48.9 -13.83 L 53.16 -16.32 C 51.69 -19.35 49.14 -20.91 45.78 -20.91 C 42.12 -20.91 39 -18.54 39 -14.76 C 39 -10.89 41.76 -9.36 45.09 -8.37 C 46.14 -8.07 46.89 -7.8 47.4 -7.59 C 48.09 -7.32 48.78 -6.96 48.78 -6.12 C 48.78 -5.01 47.28 -4.47 46.38 -4.47 C 44.43 -4.47 43.08 -5.22 42.33 -7.08 L 38.13 -4.62 C 39.48 -1.17 42.66 0.42 46.26 0.42 Z M 68.67 0 L 74.01 0 L 66.48 -20.52 L 61.14 -20.52 L 53.64 0 L 58.98 0 L 60.3 -3.57 L 67.35 -3.57 Z M 62.01 -8.31 L 63.84 -13.26 L 65.61 -8.31 Z M 75.93 -20.52 L 75.93 0 L 80.94 0 L 80.94 -20.52 Z M 96.33 -20.52 L 96.33 -10.08 L 89.67 -20.52 L 84.66 -20.52 L 84.66 0 L 89.67 0 L 89.67 -11.73 L 97.17 0 L 101.34 0 L 101.34 -20.52 Z M 119.94 -6.6 L 123.63 0 L 129.33 0 L 125.04 -7.74 C 127.02 -9.03 128.16 -11.22 128.16 -13.56 C 128.16 -17.43 125.07 -20.52 121.23 -20.52 L 112.53 -20.52 L 112.53 0 L 117.54 0 L 117.54 -6.6 Z M 117.54 -11.34 L 117.54 -15.78 L 121.23 -15.78 C 122.49 -15.78 123.45 -14.82 123.45 -13.56 C 123.45 -12.36 122.43 -11.34 121.23 -11.34 Z M 146.91 -6.9 L 146.91 -20.52 L 141.93 -20.52 L 141.93 -6.9 C 141.93 -5.16 140.25 -4.56 138.75 -4.56 C 137.37 -4.56 135.6 -5.28 135.6 -6.9 L 135.6 -20.52 L 130.62 -20.52 L 130.62 -6.9 C 130.62 -2.34 134.49 0.42 138.75 0.42 C 143.04 0.42 146.91 -2.43 146.91 -6.9 Z M 162.21 0 L 167.55 0 L 160.02 -20.52 L 154.68 -20.52 L 147.18 0 L 152.52 0 L 153.84 -3.57 L 160.89 -3.57 Z M 155.55 -8.31 L 157.38 -13.26 L 159.15 -8.31 Z M 180.75 -20.52 L 180.75 -10.08 L 174.09 -20.52 L 169.08 -20.52 L 169.08 0 L 174.09 0 L 174.09 -11.73 L 181.59 0 L 185.76 0 L 185.76 -20.52 Z M 208.95 -9.42 L 208.95 -11.46 L 197.61 -11.46 L 197.61 -6.72 L 202.89 -6.72 C 201.84 -5.37 200.25 -4.59 198.54 -4.59 C 195.48 -4.59 192.93 -7.14 192.93 -10.17 C 192.93 -13.23 195.51 -15.75 198.54 -15.75 C 200.4 -15.75 201.87 -14.94 203.01 -13.47 L 206.91 -16.56 C 204.87 -19.2 201.9 -20.73 198.54 -20.73 C 192.66 -20.73 187.95 -15.99 187.95 -10.17 C 187.95 -4.32 192.75 0.42 198.54 0.42 C 204 0.42 208.95 -3.84 208.95 -9.42 Z M 219.24 -20.52 L 219.24 0 L 224.25 0 L 224.25 -20.52 Z M 243.75 -20.49 L 243.72 -20.52 L 238.35 -11.55 L 232.98 -20.52 L 227.97 -20.52 L 227.97 0 L 232.98 0 L 232.98 -11.37 L 237.75 -3.36 L 238.98 -3.36 L 243.75 -11.37 L 243.75 0 L 248.73 0 L 248.73 -20.52 L 243.75 -20.52 Z M 260.31 -20.52 L 252.48 -20.52 L 252.48 0 L 257.46 0 L 257.46 -6.6 L 260.31 -6.6 C 264.18 -6.6 267.3 -9.72 267.3 -13.56 C 267.3 -17.4 264.18 -20.52 260.31 -20.52 Z M 257.46 -11.34 L 257.46 -15.78 L 260.31 -15.78 C 261.6 -15.78 262.53 -14.85 262.53 -13.56 C 262.53 -12.3 261.57 -11.34 260.31 -11.34 Z M 269.22 -20.52 L 269.22 0 L 274.23 0 L 274.23 -20.52 Z M 290.67 0 L 296.01 0 L 288.48 -20.52 L 283.14 -20.52 L 275.64 0 L 280.98 0 L 282.3 -3.57 L 289.35 -3.57 Z M 284.01 -8.31 L 285.84 -13.26 L 287.61 -8.31 Z M 309.21 -20.52 L 309.21 -10.08 L 302.55 -20.52 L 297.54 -20.52 L 297.54 0 L 302.55 0 L 302.55 -11.73 L 310.05 0 L 314.22 0 L 314.22 -20.52 Z M 338.67 0 L 344.01 0 L 336.48 -20.52 L 331.14 -20.52 L 323.64 0 L 328.98 0 L 330.3 -3.57 L 337.35 -3.57 Z M 332.01 -8.31 L 333.84 -13.26 L 335.61 -8.31 Z M 357.21 -20.52 L 357.21 -10.08 L 350.55 -20.52 L 345.54 -20.52 L 345.54 0 L 350.55 0 L 350.55 -11.73 L 358.05 0 L 362.22 0 L 362.22 -20.52 Z M 374.67 -20.52 L 365.91 -20.52 L 365.91 0 L 374.67 0 C 380.52 0 385.2 -4.32 385.2 -10.17 C 385.2 -15.99 380.52 -20.52 374.67 -20.52 Z M 370.92 -4.71 L 370.92 -15.78 L 374.67 -15.78 C 377.76 -15.78 380.22 -13.29 380.22 -10.23 C 380.22 -7.14 377.7 -4.71 374.67 -4.71 Z M 401.28 0 L 406.62 0 L 399.09 -20.52 L 393.75 -20.52 L 386.25 0 L 391.59 0 L 392.91 -3.57 L 399.96 -3.57 Z M 394.62 -8.31 L 396.45 -13.26 L 398.22 -8.31 Z" stroke-linecap="round" />
</g>
</g>
</g>
</svg>